<svg xmlns="http://www.w3.org/2000/svg" aria-hidden="true" style="position:absolute;width:0;height:0;overflow:hidden">
  <defs>
	<symbol id="icon-arrow" viewBox="0 0 55 32">
	  <path d="M25.004 29.853c1.339 1.339 3.51 1.339 4.849 0l21.819-21.819c1.339-1.339 1.339-3.51 0-4.849s-3.51-1.339-4.849 0l-19.395 19.395-19.395-19.395c-1.339-1.339-3.51-1.339-4.849 0s-1.339 3.51 0 4.849l21.819 21.819zM24 22.857v4.571h6.857v-4.571h-6.857z"></path>
	</symbol>
    <symbol id="icon-whatsapp" viewBox="0 0 32 32">
      <path fill="none" stroke="#f5f7f8" style="stroke:var(--color1, #f5f7f8)" stroke-linejoin="round" stroke-linecap="round" stroke-width="1.264" d="M16.001 10.93a2.15 2.15 0 0 1 2.158 2.151m-2.158-7.889c2.099 0 4.113.831 5.597 2.311s2.318 3.486 2.318 5.578m-7.915-5.02c1.336 0 2.617.529 3.562 1.47s1.475 2.218 1.475 3.55m-10.075 5.02c1.871 1.865 6.001 4.303 7.915 4.303.84.009 1.656-.272 2.312-.795s1.11-1.255 1.286-2.074v-1.434s-1.77-.861-2.878-1.434-2.878 1.434-2.878 1.434a9.392 9.392 0 0 1-3.598-2.151 9.355 9.355 0 0 1-2.159-3.586s2.015-1.764 1.439-2.869-1.439-2.869-1.439-2.869H9.524c-.821.175-1.556.628-2.081 1.281s-.806 1.468-.798 2.304c0 1.908 2.447 6.024 4.317 7.889z"/>
      <path fill="none" stroke="#f5f7f8" style="stroke:var(--color1, #f5f7f8)" stroke-linejoin="round" stroke-linecap="round" stroke-width="1.264" d="M16 .889C8.157.889.889 2.151.889 13.798c0 7.458 2.993 10.657 7.196 11.991v3.744c-.032.315.041.632.209.901a1.442 1.442 0 0 0 2.396.075l3.368-3.83h1.943c7.843 0 15.111-1.248 15.111-12.909S23.844.89 16.001.89z"/>
    </symbol>
    <symbol id="icon-telegram" viewBox="0 0 36 32">
      <path fill="#f5f7f8" style="fill:var(--color1, #f5f7f8)" d="M14.438 31.867a1.134 1.134 0 0 1-1.133-1.133V20.421c0-.325.139-.633.382-.849l4.778-4.234-7.894 4.589c-.328.19-.733.204-1.076.035l-8.868-4.42a1.132 1.132 0 0 1 .095-2.07L34.721.212c.382-.154.822-.08 1.141.189.317.266.464.684.382 1.091l-5.913 29.466a1.135 1.135 0 0 1-1.672.761l-9.481-5.399-3.834 5.097c-.219.289-.558.45-.907.45zm4.434-8.16c.192 0 .385.048.561.148l8.983 5.116 5.197-25.895L3.929 14.654l6.032 3.007L27.172 7.655a1.128 1.128 0 0 1 1.487.316c.343.471.27 1.126-.166 1.513L15.572 20.932v6.413l2.395-3.184a1.13 1.13 0 0 1 .905-.453z"/>
    </symbol>
    <symbol id="icon-instagram" viewBox="0 0 32 32">
      <path fill="#fff" style="fill:var(--color2, #fff)" d="M31.91 9.403c-.077-1.704-.352-2.87-.743-3.888-.41-1.05-.954-1.947-1.844-2.831S27.544 1.243 26.494.839C25.476.442 24.311.173 22.608.096 20.899.019 20.355 0 16.015 0c-4.346 0-4.891.019-6.593.096S6.554.448 5.536.839c-1.056.41-1.952.954-2.836 1.845S1.26 4.465.856 5.515C.466 6.533.19 7.699.113 9.403.036 11.113.017 11.658.017 16c0 4.349.019 4.894.096 6.597s.352 2.869.743 3.888c.41 1.05.954 1.947 1.844 2.831a7.727 7.727 0 0 0 2.829 1.845c1.018.397 2.183.666 3.886.743 1.709.077 2.253.096 6.593.096 4.346 0 4.891-.019 6.593-.096s2.868-.352 3.886-.743c1.05-.41 1.946-.954 2.829-1.845s1.44-1.781 1.844-2.831c.397-1.018.666-2.184.743-3.888.077-1.71.096-2.255.096-6.597s-.013-4.894-.09-6.597zm-2.874 13.066c-.07 1.563-.333 2.415-.55 2.972-.288.743-.64 1.281-1.203 1.845s-1.095.903-1.844 1.204c-.563.218-1.415.48-2.97.551-1.684.077-2.189.096-6.465.096s-4.782-.019-6.465-.096c-1.562-.07-2.413-.333-2.97-.551-.743-.288-1.28-.64-1.844-1.204s-.903-1.095-1.203-1.845c-.218-.564-.48-1.416-.55-2.972-.077-1.685-.096-2.191-.096-6.469s.019-4.785.096-6.469c.07-1.563.333-2.415.55-2.972.288-.743.64-1.281 1.203-1.845S5.82 3.811 6.569 3.51c.563-.218 1.415-.48 2.97-.551 1.684-.077 2.189-.096 6.465-.096s4.782.019 6.465.096c1.562.07 2.413.333 2.97.551.743.288 1.28.641 1.844 1.204s.903 1.095 1.203 1.845c.218.564.48 1.416.55 2.972.077 1.685.096 2.191.096 6.469s-.026 4.785-.096 6.469z"/>
      <path fill="#fff" style="fill:var(--color2, #fff)" d="M16.003 7.776A8.218 8.218 0 0 0 7.784 16c0 4.548 3.681 8.224 8.219 8.224s8.219-3.689 8.219-8.224a8.214 8.214 0 0 0-8.219-8.224zm0 13.559c-2.945 0-5.332-2.389-5.332-5.335s2.388-5.335 5.332-5.335c2.945 0 5.332 2.389 5.332 5.335s-2.388 5.335-5.332 5.335zM24.543 9.377c1.061 0 1.92-.86 1.92-1.922a1.92 1.92 0 1 0-1.92 1.922z"/>
      <path fill="#fff" style="fill:var(--color2, #fff)" d="M0 16c0 4.349.019 4.894.096 6.597s.352 2.869.743 3.888c.41 1.05.954 1.947 1.844 2.831a7.804 7.804 0 0 0 2.829 1.845c1.018.397 2.183.666 3.886.743 1.709.077 2.253.096 6.593.096 4.346 0 4.891-.019 6.593-.096s2.868-.352 3.886-.743c1.05-.41 1.946-.954 2.829-1.845a7.82 7.82 0 0 0 1.844-2.831c.397-1.018.666-2.184.743-3.888.077-1.71.096-2.255.096-6.597 0-4.349-.019-4.894-.096-6.597s-.352-2.87-.743-3.888c-.41-1.05-.954-1.947-1.844-2.831A7.649 7.649 0 0 0 26.476.839C25.458.442 24.293.173 22.59.096 20.881.019 20.337 0 15.997 0c-4.346 0-4.891.019-6.593.096S6.536.448 5.518.839c-1.05.41-1.946.954-2.829 1.845S1.249 4.465.845 5.515C.448 6.533.173 7.699.096 9.403S0 11.651 0 16zm2.887 0c0-4.272.019-4.785.096-6.469.07-1.563.333-2.415.55-2.972.288-.743.64-1.281 1.203-1.845S5.831 3.811 6.58 3.51c.563-.218 1.415-.48 2.97-.551 1.684-.077 2.189-.096 6.465-.096s4.782.019 6.465.096c1.562.07 2.413.333 2.97.551.743.288 1.28.641 1.844 1.204s.903 1.095 1.203 1.845c.218.564.48 1.416.55 2.972.077 1.685.096 2.191.096 6.469s-.019 4.785-.096 6.469c-.07 1.563-.333 2.415-.55 2.972-.288.743-.64 1.281-1.203 1.845s-1.095.903-1.844 1.204c-.563.218-1.415.48-2.97.551-1.684.077-2.189.096-6.465.096s-4.782-.019-6.465-.096c-1.562-.07-2.413-.333-2.97-.551-.743-.288-1.28-.64-1.844-1.204s-.903-1.095-1.203-1.845c-.218-.564-.48-1.416-.55-2.972-.083-1.685-.096-2.197-.096-6.469z"/>
    </symbol>
    <symbol id="icon-prev" viewBox="0 0 168 32">
      <path fill="#705a66" d="M2.586 17.414a2 2 0 0 1 0-2.828L15.314 1.858a2 2 0 1 1 2.828 2.828L6.828 16l11.314 11.314a2 2 0 1 1-2.828 2.828L2.586 17.414zM168 18H4v-4h164v4z" style="fill:var(--color1, #705a66)"/>
    </symbol>
    <symbol id="icon-next" viewBox="0 0 168 32">
      <path fill="#705a66" d="M165.414 17.414a2 2 0 0 0 0-2.828L152.686 1.858a2 2 0 1 0-2.828 2.828L161.172 16l-11.314 11.314a2 2 0 1 0 2.828 2.828l12.728-12.728zM0 18h164v-4H0v4z" style="fill:var(--color1, #705a66)"/>
    </symbol>
    <symbol id="icon-Vector-36" viewBox="0 0 27 32">
      <path fill="none" stroke="#705a66" stroke-linecap="round" stroke-width="1.021" d="M3.857.681c-3.976.431-3.392 9.438-2.612 11.911 1.801 5.713 6.774 10.258 11.891 9.546m0 0c1.93-.269 3.881-1.286 5.69-3.271 2.587-2.84 2.031-9.329-3.014-8.382-5.806 1.089-4.925 6.903-2.676 11.653zm0 0c1.091 2.304 2.503 4.359 3.63 5.503 1.374 1.394 4.546 2.619 7.119 2.442m0-.001c.82-.056 1.579-.255 2.2-.636m-2.2.636c.793-.358 1.679-.744 2.204-.929m-2.204.929c-.51.23-.981.45-1.292.597-3.23 1.531 1.901-.089 2.964-.686.308-.173.473-.357.528-.547m0 0c.095-.058.187-.121.275-.188.364-.276.179-.264-.271-.105m-.004.293a.56.56 0 0 0 .004-.293m0 0c-.237-.982-2.825-2.034-3.245-2.444" style="stroke:var(--color1, #705a66)"/>
    </symbol>
    <symbol id="icon-Vector-35" viewBox="0 0 66 32">
      <path fill="none" stroke="#705a66" stroke-linecap="round" stroke-width="7.385" d="M8.664 27.077C-9.457 22.774 43.167 4.923 61.538 4.923" style="stroke:var(--color1, #705a66)"/>
    </symbol>
    <symbol id="icon-Vector-34" viewBox="0 0 34 32">
      <path fill="none" stroke="#705a66" stroke-linecap="round" stroke-width="3.429" d="M2.286 29.714c.43-4.631 5.065-7.364 8.018-10.159C17.258 12.974 23.911 7.037 32 2.285" style="stroke:var(--color1, #705a66)"/>
    </symbol>
    <symbol id="icon-close" viewBox="0 0 34 32">
<path fill="#f5f7f8" style="fill: var(--color1, #f5f7f8)" d="M5.425 0.671c-0.433-0.404-1.006-0.624-1.599-0.613s-1.157 0.25-1.576 0.669c-0.419 0.419-0.659 0.984-0.669 1.576s0.209 1.165 0.613 1.599l11.337 11.337-11.337 11.337c-0.225 0.209-0.405 0.462-0.53 0.742s-0.192 0.583-0.198 0.89c-0.005 0.307 0.051 0.612 0.166 0.896s0.286 0.543 0.503 0.76c0.217 0.217 0.476 0.388 0.76 0.503s0.589 0.171 0.896 0.166c0.307-0.006 0.61-0.073 0.89-0.198s0.533-0.305 0.742-0.53l11.337-11.337 11.337 11.337c0.209 0.225 0.462 0.405 0.742 0.53s0.583 0.192 0.89 0.198c0.307 0.005 0.612-0.051 0.896-0.166s0.543-0.286 0.76-0.503c0.217-0.217 0.388-0.476 0.503-0.76s0.171-0.59 0.166-0.896c-0.005-0.307-0.073-0.61-0.198-0.89s-0.305-0.533-0.53-0.742l-11.337-11.337 11.337-11.337c0.404-0.433 0.624-1.006 0.613-1.599s-0.25-1.157-0.669-1.576c-0.419-0.419-0.984-0.659-1.576-0.669s-1.165 0.209-1.599 0.613l-11.337 11.337-11.337-11.337z"></path>
</symbol>
<symbol id="icon-burger" viewBox="0 0 36 32">
<path fill="#705a66" style="fill: var(--color1, #705a66)" d="M9.946 8.649h16.432c0.716 0 1.297 0.581 1.297 1.297s-0.581 1.297-1.297 1.297h-16.432c-0.716 0-1.297-0.581-1.297-1.297s0.581-1.297 1.297-1.297z"></path>
<path fill="#705a66" style="fill: var(--color1, #705a66)" d="M9.946 14.703h16.432c0.716 0 1.297 0.581 1.297 1.297s-0.581 1.297-1.297 1.297h-16.432c-0.716 0-1.297-0.581-1.297-1.297s0.581-1.297 1.297-1.297z"></path>
<path fill="#705a66" style="fill: var(--color1, #705a66)" d="M9.946 20.757h16.432c0.716 0 1.297 0.581 1.297 1.297s-0.581 1.297-1.297 1.297h-16.432c-0.716 0-1.297-0.581-1.297-1.297s0.581-1.297 1.297-1.297z"></path>
</symbol>
<symbol id="icon-cart" viewBox="0 0 33 32">
<path fill="#705a66" style="fill: var(--color1, #705a66)" d="M9.92 25.6c-1.76 0-3.184 1.44-3.184 3.2s1.424 3.2 3.184 3.2c1.76 0 3.2-1.44 3.2-3.2s-1.44-3.2-3.2-3.2zM0.32 0v3.2h3.2l5.76 12.144-2.16 3.92c-0.256 0.448-0.4 0.976-0.4 1.536 0 1.76 1.44 3.2 3.2 3.2h19.2v-3.2h-18.528c-0.224 0-0.4-0.176-0.4-0.4l0.048-0.192 1.44-2.608h11.92c1.2 0 2.256-0.656 2.8-1.648l5.728-10.384c0.128-0.224 0.192-0.496 0.192-0.768 0-0.88-0.72-1.6-1.6-1.6h-23.664l-1.504-3.2h-5.232zM25.92 25.6c-1.76 0-3.184 1.44-3.184 3.2s1.424 3.2 3.184 3.2c1.76 0 3.2-1.44 3.2-3.2s-1.44-3.2-3.2-3.2z"></path>
</symbol>
  </defs>
</svg>