<svg aria-hidden="true" style="position: absolute; width: 0; height: 0; overflow: hidden;" version="1.1" xmlns="http://www.w3.org/2000/svg" xmlns:xlink="http://www.w3.org/1999/xlink">
<defs>
<symbol id="icon-cart" viewBox="0 0 33 32">
<path fill="#705a66" style="fill: var(--color1, #705a66)" d="M9.92 25.6c-1.76 0-3.184 1.44-3.184 3.2s1.424 3.2 3.184 3.2c1.76 0 3.2-1.44 3.2-3.2s-1.44-3.2-3.2-3.2zM0.32 0v3.2h3.2l5.76 12.144-2.16 3.92c-0.256 0.448-0.4 0.976-0.4 1.536 0 1.76 1.44 3.2 3.2 3.2h19.2v-3.2h-18.528c-0.224 0-0.4-0.176-0.4-0.4l0.048-0.192 1.44-2.608h11.92c1.2 0 2.256-0.656 2.8-1.648l5.728-10.384c0.128-0.224 0.192-0.496 0.192-0.768 0-0.88-0.72-1.6-1.6-1.6h-23.664l-1.504-3.2h-5.232zM25.92 25.6c-1.76 0-3.184 1.44-3.184 3.2s1.424 3.2 3.184 3.2c1.76 0 3.2-1.44 3.2-3.2s-1.44-3.2-3.2-3.2z"></path>
</symbol>
</defs>
</svg>
