<svg xmlns="http://www.w3.org/2000/svg" aria-hidden="true" style="position:absolute;width:0;height:0;overflow:hidden">
  <defs>
	<symbol id="icon-arrow" viewBox="0 0 55 32">
	  <path d="M25.004 29.853c1.339 1.339 3.51 1.339 4.849 0l21.819-21.819c1.339-1.339 1.339-3.51 0-4.849s-3.51-1.339-4.849 0l-19.395 19.395-19.395-19.395c-1.339-1.339-3.51-1.339-4.849 0s-1.339 3.51 0 4.849l21.819 21.819zM24 22.857v4.571h6.857v-4.571h-6.857z"></path>
	</symbol>
    <symbol id="icon-whatsapp" viewBox="0 0 32 32">
      <path fill="none" stroke="#f5f7f8" style="stroke:var(--color1, #f5f7f8)" stroke-linejoin="round" stroke-linecap="round" stroke-width="1.264" d="M16.001 10.93a2.15 2.15 0 0 1 2.158 2.151m-2.158-7.889c2.099 0 4.113.831 5.597 2.311s2.318 3.486 2.318 5.578m-7.915-5.02c1.336 0 2.617.529 3.562 1.47s1.475 2.218 1.475 3.55m-10.075 5.02c1.871 1.865 6.001 4.303 7.915 4.303.84.009 1.656-.272 2.312-.795s1.11-1.255 1.286-2.074v-1.434s-1.77-.861-2.878-1.434-2.878 1.434-2.878 1.434a9.392 9.392 0 0 1-3.598-2.151 9.355 9.355 0 0 1-2.159-3.586s2.015-1.764 1.439-2.869-1.439-2.869-1.439-2.869H9.524c-.821.175-1.556.628-2.081 1.281s-.806 1.468-.798 2.304c0 1.908 2.447 6.024 4.317 7.889z"/>
      <path fill="none" stroke="#f5f7f8" style="stroke:var(--color1, #f5f7f8)" stroke-linejoin="round" stroke-linecap="round" stroke-width="1.264" d="M16 .889C8.157.889.889 2.151.889 13.798c0 7.458 2.993 10.657 7.196 11.991v3.744c-.032.315.041.632.209.901a1.442 1.442 0 0 0 2.396.075l3.368-3.83h1.943c7.843 0 15.111-1.248 15.111-12.909S23.844.89 16.001.89z"/>
    </symbol>
    <symbol id="icon-telegram" viewBox="0 0 36 32">
      <path fill="#f5f7f8" style="fill:var(--color1, #f5f7f8)" d="M14.438 31.867a1.134 1.134 0 0 1-1.133-1.133V20.421c0-.325.139-.633.382-.849l4.778-4.234-7.894 4.589c-.328.19-.733.204-1.076.035l-8.868-4.42a1.132 1.132 0 0 1 .095-2.07L34.721.212c.382-.154.822-.08 1.141.189.317.266.464.684.382 1.091l-5.913 29.466a1.135 1.135 0 0 1-1.672.761l-9.481-5.399-3.834 5.097c-.219.289-.558.45-.907.45zm4.434-8.16c.192 0 .385.048.561.148l8.983 5.116 5.197-25.895L3.929 14.654l6.032 3.007L27.172 7.655a1.128 1.128 0 0 1 1.487.316c.343.471.27 1.126-.166 1.513L15.572 20.932v6.413l2.395-3.184a1.13 1.13 0 0 1 .905-.453z"/>
    </symbol>
    <symbol id="icon-instagram" viewBox="0 0 32 32">
      <path fill="#fff" style="fill:var(--color2, #fff)" d="M31.91 9.403c-.077-1.704-.352-2.87-.743-3.888-.41-1.05-.954-1.947-1.844-2.831S27.544 1.243 26.494.839C25.476.442 24.311.173 22.608.096 20.899.019 20.355 0 16.015 0c-4.346 0-4.891.019-6.593.096S6.554.448 5.536.839c-1.056.41-1.952.954-2.836 1.845S1.26 4.465.856 5.515C.466 6.533.19 7.699.113 9.403.036 11.113.017 11.658.017 16c0 4.349.019 4.894.096 6.597s.352 2.869.743 3.888c.41 1.05.954 1.947 1.844 2.831a7.727 7.727 0 0 0 2.829 1.845c1.018.397 2.183.666 3.886.743 1.709.077 2.253.096 6.593.096 4.346 0 4.891-.019 6.593-.096s2.868-.352 3.886-.743c1.05-.41 1.946-.954 2.829-1.845s1.44-1.781 1.844-2.831c.397-1.018.666-2.184.743-3.888.077-1.71.096-2.255.096-6.597s-.013-4.894-.09-6.597zm-2.874 13.066c-.07 1.563-.333 2.415-.55 2.972-.288.743-.64 1.281-1.203 1.845s-1.095.903-1.844 1.204c-.563.218-1.415.48-2.97.551-1.684.077-2.189.096-6.465.096s-4.782-.019-6.465-.096c-1.562-.07-2.413-.333-2.97-.551-.743-.288-1.28-.64-1.844-1.204s-.903-1.095-1.203-1.845c-.218-.564-.48-1.416-.55-2.972-.077-1.685-.096-2.191-.096-6.469s.019-4.785.096-6.469c.07-1.563.333-2.415.55-2.972.288-.743.64-1.281 1.203-1.845S5.82 3.811 6.569 3.51c.563-.218 1.415-.48 2.97-.551 1.684-.077 2.189-.096 6.465-.096s4.782.019 6.465.096c1.562.07 2.413.333 2.97.551.743.288 1.28.641 1.844 1.204s.903 1.095 1.203 1.845c.218.564.48 1.416.55 2.972.077 1.685.096 2.191.096 6.469s-.026 4.785-.096 6.469z"/>
      <path fill="#fff" style="fill:var(--color2, #fff)" d="M16.003 7.776A8.218 8.218 0 0 0 7.784 16c0 4.548 3.681 8.224 8.219 8.224s8.219-3.689 8.219-8.224a8.214 8.214 0 0 0-8.219-8.224zm0 13.559c-2.945 0-5.332-2.389-5.332-5.335s2.388-5.335 5.332-5.335c2.945 0 5.332 2.389 5.332 5.335s-2.388 5.335-5.332 5.335zM24.543 9.377c1.061 0 1.92-.86 1.92-1.922a1.92 1.92 0 1 0-1.92 1.922z"/>
      <path fill="#fff" style="fill:var(--color2, #fff)" d="M0 16c0 4.349.019 4.894.096 6.597s.352 2.869.743 3.888c.41 1.05.954 1.947 1.844 2.831a7.804 7.804 0 0 0 2.829 1.845c1.018.397 2.183.666 3.886.743 1.709.077 2.253.096 6.593.096 4.346 0 4.891-.019 6.593-.096s2.868-.352 3.886-.743c1.05-.41 1.946-.954 2.829-1.845a7.82 7.82 0 0 0 1.844-2.831c.397-1.018.666-2.184.743-3.888.077-1.71.096-2.255.096-6.597 0-4.349-.019-4.894-.096-6.597s-.352-2.87-.743-3.888c-.41-1.05-.954-1.947-1.844-2.831A7.649 7.649 0 0 0 26.476.839C25.458.442 24.293.173 22.59.096 20.881.019 20.337 0 15.997 0c-4.346 0-4.891.019-6.593.096S6.536.448 5.518.839c-1.05.41-1.946.954-2.829 1.845S1.249 4.465.845 5.515C.448 6.533.173 7.699.096 9.403S0 11.651 0 16zm2.887 0c0-4.272.019-4.785.096-6.469.07-1.563.333-2.415.55-2.972.288-.743.64-1.281 1.203-1.845S5.831 3.811 6.58 3.51c.563-.218 1.415-.48 2.97-.551 1.684-.077 2.189-.096 6.465-.096s4.782.019 6.465.096c1.562.07 2.413.333 2.97.551.743.288 1.28.641 1.844 1.204s.903 1.095 1.203 1.845c.218.564.48 1.416.55 2.972.077 1.685.096 2.191.096 6.469s-.019 4.785-.096 6.469c-.07 1.563-.333 2.415-.55 2.972-.288.743-.64 1.281-1.203 1.845s-1.095.903-1.844 1.204c-.563.218-1.415.48-2.97.551-1.684.077-2.189.096-6.465.096s-4.782-.019-6.465-.096c-1.562-.07-2.413-.333-2.97-.551-.743-.288-1.28-.64-1.844-1.204s-.903-1.095-1.203-1.845c-.218-.564-.48-1.416-.55-2.972-.083-1.685-.096-2.197-.096-6.469z"/>
    </symbol>
  </defs>
</svg>